<svg xmlns="http://www.w3.org/2000/svg" width="16" height="12" fill="currentColor" style=""><rect id="backgroundrect" width="100%" height="100%" x="0" y="0" fill="none" stroke="none"/>
  
<g class="currentLayer" style=""><title>Layer 1</title><path d="M0,10 V2 a2,2 0 0 1 2,-2 h12 a2,2 0 0 1 2,2 v8 a2,2 0 0 1 -2,2 H2 a2,2 0 0 1 -2,-2 zm6.79,-6.907 A0.5,0.5 0 0 0 6,3.5 v5 a0.5,0.5 0 0 0 0.79,0.4070000000000001 l3.5,-2.5 a0.5,0.5 0 0 0 0,-0.8140000000000002 l-3.5,-2.5 z" id="svg_1" class="selected" fill="#ffffff" fill-opacity="1"/></g></svg>